/* XPM */
static char *result[] = {
/* columns rows colors chars-per-pixel */
"64 64 13 1 ",
"  c #003A7D",
". c #004C89",
"X c #005999",
"o c #0064A5",
"O c #0071A3",
"+ c #3887B2",
"@ c #47A5C6",
"# c #57B0CD",
"$ c #78B6D1",
"% c #9CC6DB",
"& c #C0DBE7",
"* c #E6E7E7",
"= c white",
/* pixels */
"================================================================",
"===============================@@===============================",
"=XX=========O==&==============%##&=============O==O=========oX==",
"=oo========@o=%oO=============####============oo&=o#=======*oo==",
"==OooooXoooooXooo==OO&=======######======%OO==XooXoooooXXooo@===",
"===oooo+XooooooX====oo$======######=====@oX===*oooooooX@Xooo====",
"===oooX==$oXooX=====XoX======######=====Xoo====OXooXo$==Xooo====",
"===oXooo$===========XoO=====%######%====ooX===========#oooXo====",
"===o==ooooX+=======XoX======########=====XoX=======OXoooo=*X====",
"===oo=XooX=OoooXXooo========@######@======&oooXXXoo+*Xooo=Xo====",
"===oX==oooO==XooooooX=======@######@======XooooooX==oooo==oo====",
"===oo%=o=XoX*=Xoooooo=======@######@======XoooooX=&XoX=o=@oo====",
"==oooo=X*=oooXO=============#######$============OoooX=%X=Xoo+===",
"=OoooX=@X=ooOoooX*==========&######*=========&XoooOo+=X%=Xooo+==",
"===ooX==o+=oo$ooooo==========######=========Xoooo%oo=Oo==XoX====",
"==$ooX==ooOXoX*oooooO&=======@####@======%oooooX=ooXXoo==Xoo%===",
"=XooX===ooo*ooo*Xoooooooo=====####====XoooooooX&Xoo=ooo==&Xooo==",
"==XX*===ooo=oooO=ooooooX======@##@=====Xoooooo=Xooo=ooo===*XX===",
"========oo&=ooooX=oooO*========##=======&Oooo=Xooo+=$oo=========",
"=======*ooX==XoooX=ooX&========%%=======%Xoo=XoooX==Xoo=========",
"===o===Xooo===ooooX=ooooXo===========XXoooo=Xoooo===oooX===o====",
"===XX#Xo@XX===XooooX%ooo@=============+ooX*oooooX===XX#oX#XX====",
"===ooooX======Ooo&ooX%oo===============oo&Xoo#oo@======Xooo+====",
"====XXo=======&oo=XoooOo+=============ooOoooo=oo========XXX=====",
"===============oX==ooooo$=============@ooooo==XX================",
"===============o===o&#X+======* =======+X$$o===.================",
"===================o===== O==== ====O =====X====================",
"========================= . &=====% . ==========================",
"=======&$###%============+...+===O...%=============%###$*=======",
"====%@#########$==========....===...O===========##########@%====",
"==%##############@========= .. = .. ==========@##############&==",
"=##################=========@  =. $==========##################=",
"=$################@===== +===========O ======@################$=",
"==###############@======+====X = O====@=======@###############==",
"====@##########@%==========+.. = ..@===========%@##########@====",
"=======#@@@@@%============$...*=%...&=============%@@@@@$*======",
"=========================&... === .. *==========================",
"========================= ...===== ...==========================",
"===================&=====  +===&===O  =====$====================",
"===============&===o==$=======%.&=======$==o===.================",
"===============oO==ooooo==============&ooooo==oX================",
"====%o&=======*oo=Oooooo+=============oooooo@=oo========%o%=====",
"===#ooo+======@oo*ooo%oo&=============$oo$ooX%oo$======Oooo%====",
"===XoXoo=O$===Xooooo*Xoo===============ooo&oooooo===#+=ooooX====",
"===.===oooo===ooooo=ooooo&===========%ooooX*ooooo===oooX===o====",
"=======#ooX==Xoooo=XooX========##======*XooX*ooooX==ooo&========",
"========oo@=#oooo=Xoo=========@##@========ooX=oooo%=Ooo=========",
"==@#====ooX=XooX=Xooooo+=====*####*====OoooooX=oooX=XoX====##===",
"=.ooX===ooo&ooX&XoooooooX====@####@===XoooooooX*Xoo=ooo==&oooX==",
"==Xooo==ooXXoo=oooooXX#**====######===*&@XXooooo&oooXoo==Xooo===",
"===ooX==oX=oo&ooooX*========*######========&XoooX$oo=Xo==XoX====",
"=ooooX=$X=@o+ooooo==========$######$=========oooooOo%=o&=XoooO==",
"==XooX=X$=XoooX%============@######@===========OXoooX=@o=XooX===",
"==*oo@=o=oooo=OoX*Xo$=======@######@======+oX=XX+=Xooo=X=+oo====",
"===oo==oooX*=+ooooooX=======@######@======Xoooooo@=&Xooo=&oo====",
"===oX=+ooX==Xooooooo&=======#######@======%oooooooX==Xoo#=Xo====",
"===o&=oooooXO*====+oo+======%######%=====Ooo@====*OXooooX=$o====",
"===o@XooX*==========oo%======######=====#oo==========&XooX@o====",
"===oooo===*+XX+=====XoX======@#####=====XoO=====+XX+====oooo====",
"===oooo=+Xoooooo====Xoo======@####@=====ooX====XoooooX+=Xooo====",
"==#oooooooooooooO==oXo========####=======XXO==oooooooooooooo%===",
"=ooo%=====%Xo=ooo=============###$============Xoo=oX&=====%ooo==",
"=oo=========.==o===============@@==============X==.=========oX==",
"================================================================"
};
