/* XPM */
static char *result[] = {
/* columns rows colors chars-per-pixel */
"65 65 16 1 ",
"  c #003A7D",
". c #003A81",
"X c #004C89",
"o c #004D8E",
"O c #005999",
"+ c #0064A5",
"@ c #0071A3",
"# c #0089B6",
"$ c #3887B2",
"% c #47A5C6",
"& c #57B0CD",
"* c #78B6D1",
"= c #9CC6DB",
"- c #C0DBE7",
"; c #E6E7E7",
": c white",
/* pixels */
"                          $:::::::::                           oo",
"XXXXXXXXXXXXXXXXXXXXXXXXXXO::::::::: XXXXXXXXXXXXXXXXXXXXXXXXXXoo",
"XXXXXXXXXXXXXXXXXXXXXXXXXX :::::::::XXXXXXXXXXXXXXXXXXXXXXXXXXXoo",
"XXXXXXXXXXXXXXX $=-*X XXXXX@::::::: XXXXX O*-=@ XXXXXXXXXXXXXXXoo",
"XXXXXXXXXXXXXO:::::::::@XXXXX::::: XXXX%::::::::: XXXXXXXXXXXXXoo",
"XXXXXXXXXXXX*::::::$ X::: XXXX   XXXX :::  %::::::@XXXXXXXXXXXXoo",
"XXXXXXXXXXX ::::::%X%::::: XXXXXXXXX :::::@X-::::::XXXXXXXXXXXXoo",
"XXXXXXXXXXX;::::::XX::::::: XXXXXXX ::::::: X::::::&XXXXXXXXXXXoo",
"XXXXXXXXXXX::::::%X:::$  :::XXXXXXX:::  &::=X-::::::XXXXXXXXXXXoo",
"XXXXXXXXXXX::::@ XX@X X$::::XXXXXX@::::OX XOX  :::::XXXXXXXXXXXoo",
"XXXXXXXXXXX:::*X=:;XXX;::::::XXXXX::::::*XXX::$X;:::XXXXXXXXXXXoo",
"XXXXXXXX  X:::%@::: XXX*-==:: XXX ::==-&XXX ::: -::-X  XXXXXXXXoo",
"XXXXX :::::X:::::::XXXXXXXX :$XXX=:XXXXXXXXX:::O:::@::::- XXXXXoo",
"XXXX*:::::::&::::: XXXXXX$$@O:XXX: @$@XXXXXX :::::-:::::::@XXXXoo",
"XXXX:::::::::    XX****XXX ::: X ::: XXO*&&*XX    ::::::::: XXXoo",
"XXX::::::$X::OXXXX$&&&&&%XX ::OX$:: XX&&&&&&@XXXX%::X*::::::XXXoo",
"XX :::::$ $::@XXXX*  $&&&% X :- :: X &&&&@ X&XXXX%::@X=::::: XXoo",
"XXX::::: &::: XXXX%XXX&&&&$XX:: :;XX&&&&%XXX%XXXXX:::@O::::: XXoo",
"XX$::::OX::::XXXXXXXXXX&&&&@X :X: X$&&&& XXXXXXXXX:::: @:::: XXoo",
"XX$::%XXX$::  &*$XXXXXX@&&&&XX;%&XO&&&*XXXXXXX%*%X ::XXXX-::XXXoo",
"XX@:*XX:=XXXX*&XXXXXXXXX X%&*X -  &&$ XX XXXXXX*&%XXXX:: X;: XXoo",
"XX : $::XXXXX*&OXXXXXX@&&&&&&@X$X%&&&&&*OXXXXXX*&*XXXX$::O@: XXoo",
"XX : ::: XXXX*&& XXXXXX@*&&&&*XXX*&&&&*OXXXXXX &&&XXXX ::: :XXXoo",
"XXX::::%X-&XX%&&&OXX&XXXXX$&&& XO&&&@XXXX *XX@&&&$XX;&X-:::-XXXoo",
"XXX ::: @::XX &&&&%X*%XXXXXX$&% **@XXXXXX**X*&&&&XXX::X ::: XXXoo",
"XXXX;::@:::XXX@&&&& *&XXXXXXXX*X& XXXXXX &* &&&*XXXX:::*::*XXXXoo",
"XXXX &:::::X@XX@&&&$&& XXXXXX &$& XXXXXXX&&&&&* X  X:::::@XXXXX.o",
"* XXXX:::::XX@XXO&&&&&&XXXXX*&&&&&*XXXXX*&&&&&XXX% X:::::XXXX =:o",
":::XXX *:::  :XXXX*&&&&@XXXX &&&&& XXXX%&&&&* XX$: X:::$XXX ::::o",
":::-XXXX ;::-::$ X &&&&&X *OX *&* X@&XX*&&&%XX ::::::= XXXX:::::o",
":::: XXXXXXX:::::XXXX&&&@ *&XXXXXX@&& $&&%XXXO::::; XXXXXX :::::o",
"::::XXXXXXXXXX $-::X X @*&&&& XXX &&&&*OXX @::=X XXXXXXXXX$:::::o",
"::::OXXXXXXXXXX  $;:OXX @&&&&XXXXO&&&%@ XX@:-$  XXXXXXXXXX%:::::o",
":::: XXXXXXXX =:::$ XX@*&*&&*XXXXX*&&*&*OXX &:::* XXXXXXXX@:::::o",
"::::XXXXXX ;::::- X &&&&  ** X % X &&X &&&%XX :::::- XXXXX :::::o",
"::: XXXX$::: :: XXO&&&&%X * X@&&&OXX* X&&&&*XXX%::X:::@XXXX@::::o",
":: XXX ::::X : XX$&&&&&OXXXX@&&&&&XXXXX$&&&&&@XX :  :::: XXXX:::o",
" XXXX :::::XX X &&&%&&+XXXXX%$&%&$&XXXXX$&&&&&%XX  X::::: XXXX oo",
"XXXX ::::::XXXX&&&&O&& XXXXXXX&$&XXXXXXX &*$&&&XXXXX:::::: XXXXoo",
"XXXX::: :::XXX&&&&&X**XXXXXXX$* *@XXXXXXX&* &&&&%XXX:::@:::XXXXoo",
"XXX@:::  :;XXX&&&&OX*@XXXX &*&$X%&*&XXXXX$*X$&&&& XX::  :::XXXXoo",
"XXX:;:::XX$XX*&&%XXXOXXX X*&&& X &&&&X XXX$XX &&&&XX= X:::-:XXXoo",
"XX : ::: XXXX*&$XXXXXX *&&&&&%XOX*&&&&&* XXXXXX&&*XXXXO::-O: XXoo",
"XX :  ::$XXXX*&XXXXXXX*&&*&&&XX*X@&&&*&&*XXXXXX*&*XXXX=:: $: XXoo",
"XX@::  @OX  X$&$XXXXXXXXX*&&&XX- X*&*& XXXXXXXX&&@X  X@OX :: XXoo",
"XX$::: XX;::XXX$$XXXXXX*&&&*XX:@:X &&&&&XXXXXX$@XX$::*XX :::XXXoo",
"XX@::::: :::: XXXXXXXXX&&&& XX: : XX&&&& XXXXXXXX ::::X::::: XXoo",
"XX :::::  :::XXXXX*XX *&&*XX :: ::XXO&&&& XX*XXXX$::: $::::: XXoo",
"XXX::::::  O:@XXXX&&&&&&* XX::$X=:;XX *&&&*&$XXXX*:   ::::::XXXoo",
"XXX:::::::::: XXXX@&&&&&XXX$:: X@::XXXO&&&&&XXXXX@:::::::::-XXXoo",
"XXX ::::::::: -;& X@&%@XX *::: X :::$ XX@%%OX =:= ::::::::: XXXoo",
"XXXX :::::::-:::::XXXXXXX  X-:XXX:%   XXXXXX@:::::*::::::: XXXXoo",
"XXXXXXX:::*@::::::: XXXXXXXX:XXXX$: XXXXXXX ::: ::: =::; XXXXXXoo",
"XXXXXXXXXXX:::$ :::XXX:::::::XXXX :::::::XX :::X-:::XXXXXXXXXXXoo",
"XXXXXXXXXXX::::X ; XXX :::::;XXXXX:::::: XXXX-  ::::XXXXXXXXXXXoo",
"XXXXXXXXXXX:::::*OX:;@X --:: XXXXX ::-= X$:=X@*:::::XXXXXXXXXXXoo",
"XXXXXXXXXXX::::::=X-:::O-::*XXXXXXX;::=O:::$X:::::::XXXXXXXXXXXoo",
"XXXXXXXXXXX$::::::  :::::::XXXXXXXX :::::::  ::::::XXXXXXXXXXXXoo",
"XXXXXXXXXXXX:::::::  ::::@XXXXXXXXXX &:::-  ::::::;XXXXXXXXXXXXoo",
"XXXXXXXXXXXX :::::::*@::%XXXX -:= XXXX-:-$=::::::: XXXXXXXXXXXXoo",
"XXXXXXXXXXXXX -:::::::* XXX ::::::;XXXX =:::::::* XXXXXXXXXXXXXoo",
"XXXXXXXXXXXXXXXX     XXXXXX::::::::=XXXXXX     XXXXXXXXXXXXXXXXoo",
"XXXXXXXXXXXXXXXXXXXXXXXXXX ::::::::: XXXXXXXXXXXXXXXXXXXXXXXXXXoo",
"oooooooooooooooooooooooooo#:::::::::ooooooooooooooooooooooooooo.o",
"oooooooooooooooooooooooooo#:::::::::ooooooooooooooooooooooooooo.o"
};
