/* XPM */
static char *result[] = {
/* columns rows colors chars-per-pixel */
"64 64 12 1 ",
"  c #003A7D",
". c #004C89",
"X c #005999",
"o c #0071A3",
"O c #3887B2",
"+ c #47A5C6",
"@ c #57B0CD",
"# c #78B6D1",
"$ c #9CC6DB",
"% c #C0DBE7",
"& c #E6E7E7",
"* c white",
/* pixels */
"O$**&%$###@#$%**OOOOOOOOOOOOo$&*&$ooOOOOOOOOOOO**&%#@@@##%&**&OO",
"..O************#......... $*********% .........O************#..O",
" .. o******+** ........ *****%#@#%***** ........ **#******O ...*",
"%..... .%***.oo.......&**%+@@@+*+@@@+%*** ...... +.&**&X .....O*",
"* ........#*........ ***+@@@@*****@@@@+&** ........*%.........*&",
"*+.........O....... **#@@@@@@@*%*+@@@@@@@** .......$.........o*%",
"**................ **+@@@@@@*%*$*%*@@@@@@+** ................**$",
"** .... O ....... **@@@@@@@@@**#**+@@@@@@@+** ....... O .... **#",
"**O... *** ......**%@@@@@@@@@**#**@@@@@@@@@$**...... *** ....**@",
"***... *** ..... **@@@@@@@@@+%*$*$+@@@@@@@@@**X..... *** ...%**+",
"*** ...***......$*%@@@@@@++*%#*$*@&*++@@@@@@$**......***....***+",
"***&............**+@@@@@%****&*%*&****$@@@@@+** ...........#***+",
"*%&*$.......... *#@@@@@+$@@@**&*%*%@@##@@@@@@+*X..........+**O*#",
"**.............#*+@@@&**@@@+@*+*+*@+@@+*&%@@@@*&.............**$",
"**#............**@@@@***++***+&**+***+#***@@@@**............o**&",
"* .............**@@@@+***++#*$**&%*@++***@@@@@**............. *&",
"$.......... $******&@+@@@@@%**+*+*&%@@@@@+@%******%. .........O#",
"........ %*************+@@@@@#***@@@@@@+&************&.........+",
"...... ****#+@@**.. .***&@@@@@$*$@@@@@%***X ..**@@+@**** ......+",
"..... ***%+@@@@**.+.. O**&@@@@+*+@@@@%**# ..@.**@@@@@$*** .....+",
".... **%@@@@@@@%* .* .. &**+@@+*+@@+*** .. *. **@@@@@@@$** ....+",
"... **@@@@@@@@@+*o. * ...O**+@@@@@+**$... * . *#@@@@@@@@+** ...O",
"...**+@@@@@@**+@** . * ...o**+@@@+**@... * ..&*++*$@@@@@@+** ..O",
"..%*#@@@@@@@***+&*$.. *.... **@@@**.... * ..o**$**$@@@@@@@@**..O",
". **@@@@@@@+***@+** .. *....#*#@+*&... *... **++***@@@@@@@@%*..O",
".**+@@@@@@$@@@*@@%**... *....**@** .. * ...&**@+*+@##@@@@@@@**.O",
" *&@@@@@@@*#@++@@@%*$... * ..O*+*$.. *....O**+@@+@@#*+@@@@@@$* +",
"+*+@@@@@@+&@+*+@@@@**@... *o. *** ..* ...o**@@@@$*@@*+@@@@@@+*%+",
"**+@@@@@@**@+*+$@@@+**X....* .***..*o... **+@@@*$*@+**+@@@@@@**O",
"**@@@*+@@**$@**$@@@@+**% .. *.$**.* ...#**+@@@@**&@**%@@#*@@@&*O",
"*%@*+***$+***+&*+@@@@+***$ ..XX*@... +***+@@@@$*$+**$@$**#@$@$*%",
"*#+********$+*%+*#@+@@@@****&O.*oO&****@@@@++%&+*&+&********+@*&",
"*#**%$$$$$%*********@@@@@+***********+@@@@+*********%$$#$$%*&+*&",
"*#@********&O&*+*$++@@@+*****O *oO&****@@@@@+*%+*$+*********+@*%",
"*%@*+&**%#***+%*@@@@@+***# ..XX*@... O***+@@@@%*#+**#$&**@#$@$*+",
"**@@@*@@+%*&@**%@@@@+**% .. *.$**.* .. $**+@@@@**%+**#@@%&@@@&*O",
"**+@@@@@#**@+*##@@@+**.....* .***..*o... **+@@@*%*@+**+@@#@@@**+",
"+*+@@@@@@+*@+*+@@@@**#... *O. *** ..* ...o**@@@@#*@@*+@@@@@@+*&+",
" *&@@@@@@@*+@+@@@@%*$... * ..o*+*$.. * ...O**+@+++@+*+@@@@@@$* +",
".**+@@@@@@&#@#*@@%**... *....**@** .. *....&**@@*+@%%@@@@@@+**.+",
". **@@@@@@@+***@+** .. *....#*#@+*%... *... **++***@@@@@@@@%*..+",
"..%*#@@@@@@@***+&*$.. * ... **@@@**.... * ..o**$**$@@@@@@@+**..+",
".. **+@@@@@@**@@** . * ...o**+@@@@**#... * ..&*++*#@@@@@@+** ..O",
"... **@@@@@@@@@+*o. * ...O**+@@+@@+**#... * . *#@@@@@@@@+** ...O",
".... **%@@@@@@@%* .* .. ***+@@+*+@@+*** .. *. **@@@@@@@$** ....O",
"..... ***%+@@@@**.+.. O**&@@@@+*+@@@@%**# ..@.**@@@@+$*** .....O",
"...... ****@+@@**..  ****@@@@@%*$@@@@@%***. ..**@@+@**** ......O",
"........ %*************+@@@@@$&**#@@@@@+&************&.........O",
"$......... .%*******@+@@@@+%**+*+**%@@@+@+@&******%X .........+*",
"* .............**@@@@+***++#*$**&%*@@+***@@@@@**............. *&",
"**+............**@@@+***++**&+%*&+***@#***@@@@**............X**%",
"**.............#*+@@@&&*@@@+@*+*+*@+@@+*&$@@@@*&.............**$",
"*$**#.......... *#@@@@@@$@@@**&*%*&@@##@@@@@@+*o..........O**O*+",
"***%............**+@@@@@%****%*%*%****$@@@@@+** ...........+***+",
"*** ...***......$*%@@@@@@++*$#*$*@&*++@@@@@@#**......***....***+",
"***... *** ..... **@@@@@@@@+@%*#*%++@@@@@@@@**X..... *** ...$**+",
"**O... *** ......**%@@@@@@@@@**#**@@@@@@@@@$**...... *** ... **+",
"** .... o ....... **@@@@@@@@#**#**@@@@@@@@+** ....... o .... **$",
"**................ **+@@@@@@*$*$*$*@@@@@@+** ................**%",
"*O.........O....... **#@@@@@@@*%*+@@@@@@+** .......%.........X**",
"* ........$*........ **&+@@@@&***&@@@@@%** ........*& ........**",
"$..... o****.Oo.......%**%+@@@+*+@@@+%*** ...... $.%***O .....o*",
" .. O******#** ........ *****$@@@$*****......... **$******+ ...O",
"..+************$......... $*********% .........O************$ .O"
};
