/* XPM */
static char *result[] = {
/* columns rows colors chars-per-pixel */
"64 64 16 1 ",
"  c #003A7D",
". c #003A81",
"X c #004C89",
"o c #004D8E",
"O c #005999",
"+ c #0064A5",
"@ c #0071A3",
"# c #0089B6",
"$ c #3887B2",
"% c #47A5C6",
"& c #57B0CD",
"* c #78B6D1",
"= c #9CC6DB",
"- c #C0DBE7",
"; c #E6E7E7",
": c white",
/* pixels */
"                          $:::::::::                           o",
"XXXXXXXXXXXXXXXXXXXXXXXXXXO::::::::: XXXXXXXXXXXXXXXXXXXXXXXXXXo",
"XXXXXXXXXXXXXXXXXXXXXXXXXX :::::::::XXXXXXXXXXXXXXXXXXXXXXXXXXXo",
"XXXXXXXXXXXXXXX $=-*X XXXXX@::::::: XXXXX O*-=@ XXXXXXXXXXXXXXXo",
"XXXXXXXXXXXXXO:::::::::@XXXXX::::: XXXX%::::::::: XXXXXXXXXXXXXo",
"XXXXXXXXXXXX*::::::$ X::: XXXX   XXXX :::  %::::::@XXXXXXXXXXXXo",
"XXXXXXXXXXX ::::::%X%::::: XXXXXXXXX :::::@X-::::::XXXXXXXXXXXXo",
"XXXXXXXXXXX;::::::XX::::::: XXXXXXX ::::::: X::::::&XXXXXXXXXXXo",
"XXXXXXXXXXX::::::%X:::$  :::XXXXXXX:::  &::=X-::::::XXXXXXXXXXXo",
"XXXXXXXXXXX::::@ XX@X X$::::XXXXXX@::::OX XOX  :::::XXXXXXXXXXXo",
"XXXXXXXXXXX:::*X=:;XXX;::::::XXXXX::::::*XXX::$X;:::XXXXXXXXXXXo",
"XXXXXXXX  X:::%@::: XXX*-==:: XXX ::==-&XXX ::: -::-X  XXXXXXXXo",
"XXXXX :::::X:::::::XXXXXXXX :$XXX=:XXXXXXXXX:::O:::@::::- XXXXXo",
"XXXX*:::::::&::::: XXXXXX$$@O:XXX: @$@XXXXXX :::::-:::::::@XXXXo",
"XXXX:::::::::    XX****XXX ::: X ::: XXO*&&*XX    ::::::::: XXXo",
"XXX::::::$X::OXXXX$&&&&&%XX ::OX$:: XX&&&&&&@XXXX%::X*::::::XXXo",
"XX :::::$ $::@XXXX*  $&&&% X :- :: X &&&&@ X&XXXX%::@X=::::: XXo",
"XXX::::: &::: XXXX%XXX&&&&$XX:: :;XX&&&&%XXX%XXXXX:::@O::::: XXo",
"XX$::::OX::::XXXXXXXXXX&&&&@X :X: X$&&&& XXXXXXXXX:::: @:::: XXo",
"XX$::%XXX$::  &*$XXXXXX@&&&&XX;%&XO&&&*XXXXXXX%*%X ::XXXX-::XXXo",
"XX@:*XX:=XXXX*&XXXXXXXXX X%&*X -  &&$ XX XXXXXX*&%XXXX:: X;: XXo",
"XX : $::XXXXX*&OXXXXXX@&&&&&&@X$X%&&&&&*OXXXXXX*&*XXXX$::O@: XXo",
"XX : ::: XXXX*&& XXXXXX@*&&&&*XXX*&&&&*OXXXXXX &&&XXXX ::: :XXXo",
"XXX::::%X-&XX%&&&OXX&XXXXX$&&& XO&&&@XXXX *XX@&&&$XX;&X-:::-XXXo",
"XXX ::: @::XX &&&&%X*%XXXXXX$&% **@XXXXXX**X*&&&&XXX::X ::: XXXo",
"XXXX;::@:::XXX@&&&& *&XXXXXXXX*X& XXXXXX &* &&&*XXXX:::*::*XXXXo",
"XXXX &:::::X@XX@&&&$&& XXXXXX &$& XXXXXXX&&&&&* X  X:::::@XXXXX.",
"* XXXX:::::XX@XXO&&&&&&XXXXX*&&&&&*XXXXX*&&&&&XXX% X:::::XXXX =:",
":::XXX *:::  :XXXX*&&&&@XXXX &&&&& XXXX%&&&&* XX$: X:::$XXX ::::",
":::-XXXX ;::-::$ X &&&&&X *OX *&* X@&XX*&&&%XX ::::::= XXXX:::::",
":::: XXXXXXX:::::XXXX&&&@ *&XXXXXX@&& $&&%XXXO::::; XXXXXX :::::",
"::::XXXXXXXXXX $-::X X @*&&&& XXX &&&&*OXX @::=X XXXXXXXXX$:::::",
"::::OXXXXXXXXXX  $;:OXX @&&&&XXXXO&&&%@ XX@:-$  XXXXXXXXXX%:::::",
":::: XXXXXXXX =:::$ XX@*&*&&*XXXXX*&&*&*OXX &:::* XXXXXXXX@:::::",
"::::XXXXXX ;::::- X &&&&  ** X % X &&X &&&%XX :::::- XXXXX :::::",
"::: XXXX$::: :: XXO&&&&%X * X@&&&OXX* X&&&&*XXX%::X:::@XXXX@::::",
":: XXX ::::X : XX$&&&&&OXXXX@&&&&&XXXXX$&&&&&@XX :  :::: XXXX:::",
" XXXX :::::XX X &&&%&&+XXXXX%$&%&$&XXXXX$&&&&&%XX  X::::: XXXX o",
"XXXX ::::::XXXX&&&&O&& XXXXXXX&$&XXXXXXX &*$&&&XXXXX:::::: XXXXo",
"XXXX::: :::XXX&&&&&X**XXXXXXX$* *@XXXXXXX&* &&&&%XXX:::@:::XXXXo",
"XXX@:::  :;XXX&&&&OX*@XXXX &*&$X%&*&XXXXX$*X$&&&& XX::  :::XXXXo",
"XXX:;:::XX$XX*&&%XXXOXXX X*&&& X &&&&X XXX$XX &&&&XX= X:::-:XXXo",
"XX : ::: XXXX*&$XXXXXX *&&&&&%XOX*&&&&&* XXXXXX&&*XXXXO::-O: XXo",
"XX :  ::$XXXX*&XXXXXXX*&&*&&&XX*X@&&&*&&*XXXXXX*&*XXXX=:: $: XXo",
"XX@::  @OX  X$&$XXXXXXXXX*&&&XX- X*&*& XXXXXXXX&&@X  X@OX :: XXo",
"XX$::: XX;::XXX$$XXXXXX*&&&*XX:@:X &&&&&XXXXXX$@XX$::*XX :::XXXo",
"XX@::::: :::: XXXXXXXXX&&&& XX: : XX&&&& XXXXXXXX ::::X::::: XXo",
"XX :::::  :::XXXXX*XX *&&*XX :: ::XXO&&&& XX*XXXX$::: $::::: XXo",
"XXX::::::  O:@XXXX&&&&&&* XX::$X=:;XX *&&&*&$XXXX*:   ::::::XXXo",
"XXX:::::::::: XXXX@&&&&&XXX$:: X@::XXXO&&&&&XXXXX@:::::::::-XXXo",
"XXX ::::::::: -;& X@&%@XX *::: X :::$ XX@%%OX =:= ::::::::: XXXo",
"XXXX :::::::-:::::XXXXXXX  X-:XXX:%   XXXXXX@:::::*::::::: XXXXo",
"XXXXXXX:::*@::::::: XXXXXXXX:XXXX$: XXXXXXX ::: ::: =::; XXXXXXo",
"XXXXXXXXXXX:::$ :::XXX:::::::XXXX :::::::XX :::X-:::XXXXXXXXXXXo",
"XXXXXXXXXXX::::X ; XXX :::::;XXXXX:::::: XXXX-  ::::XXXXXXXXXXXo",
"XXXXXXXXXXX:::::*OX:;@X --:: XXXXX ::-= X$:=X@*:::::XXXXXXXXXXXo",
"XXXXXXXXXXX::::::=X-:::O-::*XXXXXXX;::=O:::$X:::::::XXXXXXXXXXXo",
"XXXXXXXXXXX$::::::  :::::::XXXXXXXX :::::::  ::::::XXXXXXXXXXXXo",
"XXXXXXXXXXXX:::::::  ::::@XXXXXXXXXX &:::-  ::::::;XXXXXXXXXXXXo",
"XXXXXXXXXXXX :::::::*@::%XXXX -:= XXXX-:-$=::::::: XXXXXXXXXXXXo",
"XXXXXXXXXXXXX -:::::::* XXX ::::::;XXXX =:::::::* XXXXXXXXXXXXXo",
"XXXXXXXXXXXXXXXX     XXXXXX::::::::=XXXXXX     XXXXXXXXXXXXXXXXo",
"XXXXXXXXXXXXXXXXXXXXXXXXXX ::::::::: XXXXXXXXXXXXXXXXXXXXXXXXXXo",
"oooooooooooooooooooooooooo#:::::::::ooooooooooooooooooooooooooo."
};
