/* XPM */
static char *result[] = {
/* columns rows colors chars-per-pixel */
"64 64 13 1 ",
"  c #003A7D",
". c #004C89",
"X c #005999",
"o c #0064A5",
"O c #0071A3",
"+ c #3887B2",
"@ c #47A5C6",
"# c #57B0CD",
"$ c #78B6D1",
"% c #9CC6DB",
"& c #C0DBE7",
"* c #E6E7E7",
"= c white",
/* pixels */
"=======================+ooX*=======%XoX$========================",
"=O   #=====*+%========+OOOOO======&OOOOO%===$====@+======O   O==",
"@...=====%  ====== ===O@XOOOO=====OOOOo+O=== ======. =*====...*=",
"... @*@....==+*==@.@=OOX=XOOOO===XOOOO=OO$=..&==%+=*....%&O ..$=",
" ..=. ....X .......==XOo=OOOOo===OOOO$=OO+=$....... ..... O& .+=",
"+=* ==& ..........&==%o+=OOOOO===OOOOo=oo===+.......... *== ==&=",
"*==.====%.    .  %======@OOOOo===OOOOO*======@  ..   O*====.====",
"==$.O=#==================oOOOO===XOOOX==================&= .====",
"==.. ==*.$=========O==XO=+OOO====&OOO%=XX==$=========@.@=%.. ===",
"==...+=O=OOOOOX===XX==Oo=OOOO=====XOO$=OO==Oo==#ooOOo@=$= ...===",
"=*... =*X==oO$===XOo=$OO=oOX=======XOX=OO==XOO===+OO==o== ...===",
"= .+. ==O===Ooo@OOO*=oOX$OX=========OO=OOO=#OOO+Xo@==%O==..+..==",
"= = . ==oX====+OOOOoOOOOo&====& =====@OOOOOXOOOX@===&OX==...=.==",
"$==...==oOX======+XooXO*=====&.O.======&oXooX#======oOX==...=&==",
"*=$...==X@X=================%.$##.=================$Ooo==...====",
"===...==X=+X===============&.$$O##.================o&=X==...====",
"=== ..====&O==============%.$$   ##.===============O=====.. ====",
"===.. ====OO*============& +#X * +#X =============@O$====.. ====",
"==#..$===XOOo====.        +#. === O#O.        ====XOOO===...*===",
"= ..%===XOOOo====.#########. ===== O########$ ====O+OOO===O.. ==",
"==*====+XO=XO====.#.      . ==  +==        +$ ====OO%oX&========",
"===========OO====.#.*======== ...O========++$ ====OO============",
"=*XXO====@oOo====.#X&========*.X.=========++$ ====OOX#====XXo===",
"+OOOO&=oOOOOX====.#.&======= O.O   =======++$ ====oOOOOX=+OOOO&=",
"OOXo+==$XXX+%====.#.&===.&===..O..====.*==++$ ====++XoX*==ooOooO",
"OO===O====$O=====.#.&==&. === .O.X===%. ==++$ =====O*====#===OOX",
"OOOXOOOXXOO%====& #X&===+====O.O.%====O===++$.=====OOOoXOOoXOOOX",
"OOOOOOOOOOo====& +#.&========&.X.=========+O#O =====OOOOOOOOOOO$",
"XOOOOOOOOX====&.+#. ==&=======.. =======$== O#O =====XOOOOOOOOO=",
"=XOOOOOo+====%.$#. === $======X.%======OX=== O#O.=====oOoOOOOX==",
"==$XXXO=====&.$$X == +&.  +====O====O ..=X == +##.======OXXX&===",
"===========&.$$  ==...... .. ===== ........+== O##.=============",
"===========X.##.+== ....... .@===O..  .. .. ==. #$.@============",
"============ +#X.===.. .... *=====% .... . ==*.$#X ======&%=====",
"==XOOOo+===== +##.==O=X.O*===== =====*X.$= =&.$$X ====*oOOOOO%==",
"&OOOOOOOO===== +##.=== ======= .X======= ==&.$$  ====@OOOOOOOO&=",
"OOOOOOOOOO$====  ##.==========.X.=========&.$$ @====XOOOOOOOOOo$",
"OOOOOoOOoOO=====X #.&========+.O.*========++# @====+OoXXOOOoOOOX",
"OOO*XOO==OOo=====.#.&=== .===..O.@==== O==++$ =====oo===@X&=$OOX",
"OX=========o=====.#.&===. === .O. ===&. ==++$ ====%@&$&====@=oO+",
"oOOOo==XOOOO+====.#.&=======+..O..&=======++$ ====XOOOOX=$OOOOO=",
"=oOOO*=+OOOOX====.#X&======&+=.O =+=======++$ ====OOOoo==%OOOO==",
"==*%======@OO====.#.*========O.X.&========++$ ====OO============",
"===========OO====.#........==  .  =*.......+$ ====OX==*&========",
"== X====OoooO====.#@@@@@@@@.==*.==&.#@@@@@@#$ ====O%oOX====  %==",
"%X.. ===@OOOX====.$$##$#$###.====&.$##$#$##$$ ====oOOO===%...**=",
"===...===$OO+====          ##.==*.$$          ====OOX==== . ====",
"=== . ====$O==============X ##.X.$$ @==============O=====.. ====",
"===...==o=$X===============. ## $$ +===============o*=X==.. ====",
"==*...==X=O+================ +###X ================O++o==...====",
"@=&...==XOO================== +$X =======$@$*=======OOo==...====",
"&+=...==oO+====*OoOOOOOX====== . =====OOOOOOOOX&====OOX==.. = ==",
"=.+.. ==OO===@oOOOO$oOOOoX*====+====oO+oOO+=OOoOOO===Oo==..*  ==",
"=O... ==o==&o+===OO+=OOo=OO#=======XOX=OO*=XOo===+O+==o== ...===",
"==... =%+=$OOo*==#OX=*Oo=XOO======$OO+=OO==Oo===oOOOO=+*= .. ===",
"==...%=.=ooXOOO%==$X==OX=+OOX=====OOO%=oX==X===$&*&@XX%.=+...===",
"== . ==@&=============O&=OOOO%===oOOO+=*===============+== .O===",
"===.%=*======**==========OOOOX===OOOOO========$OXO+%======@.====",
"#== ===@  ....... ====O=*OOOOo===OOOOo=OX===@.........  === ==*=",
"X$+X=* ........... ==OOX=oOOOo===OOOOO=OO@==............ +=.+ $=",
" ..% ......@ . . ..%=oOO=OOOOX===oOOO@=OO@=.. %@  X=....   +..@=",
"X...===  ..@======.%=+Oo=OOOO$===#OOOO=OO==@ ====== .  @===...&=",
"%...$=====@ +===== ===OOOOOOX=====XOOOOOX=== =====  =====& .. ==",
"==*%===================XOOoO=======$XoX@========================"
};
