/* XPM */
static char *result[] = {
/* columns rows colors chars-per-pixel */
"64 64 3 1 ",
"  c #645A3A",
". c #796B44",
"X c None",
/* pixels */
"           .................................................... ",
"           .................................................... ",
"           .................................................... ",
"           .................................................... ",
"       ....................................................     ",
"       ....................................................     ",
"       ....................................................     ",
"       ....................................................     ",
"   ........................................................     ",
"   ........................................................     ",
"   ........................................................     ",
"   ........................................................     ",
"   ........................................................    .",
"   ........................................................    .",
"   ........................................................    .",
"   ........................................................    .",
"................................................................",
"................................................................",
"................................................................",
"................................................................",
"................................................................",
"................................................................",
"................................................................",
"................................................................",
".......................................................         ",
".......................................................         ",
".......................................................         ",
".......................................................         ",
"       ............................................            .",
"       ............................................            .",
"       ............................................            .",
"       ............................................            .",
"...........................................................    .",
"...........................................................    .",
"...........................................................    .",
"...........................................................    .",
".......................................................        .",
".......................................................        .",
".......................................................        .",
".......................................................        .",
"................................................................",
"................................................................",
"................................................................",
"................................................................",
"................................................................",
"................................................................",
"................................................................",
"................................................................",
"............................................................... ",
"............................................................... ",
"............................................................... ",
"............................................................... ",
"   ........................................................     ",
"   ........................................................     ",
"   ........................................................     ",
"   ........................................................     ",
"       ................................................         ",
"       ................................................         ",
"       ................................................         ",
"       ................................................         ",
"   .............................................................",
"   .............................................................",
"   .............................................................",
"   ............................................................."
};
